# AST/ASF file generated using VICON BodyLanguage
# -----------------------------------------------
:version 1.10
:name VICON
:units
  mass 1.0
  length 0.45
  angle deg
:documentation
   .ast/.asf automatically generated from VICON data using
   VICON BodyBuilder and BodyLanguage model FoxedUp or BRILLIANT.MOD
:root
   order TX TY TZ RX RY RZ
   axis XYZ
   position 0 0 0  
   orientation 0 0 0 
:bonedata
  begin
     id 1 
     name lhipjoint
     direction 0.662698 -0.695252 0.27831 
     length 2.53073 
     axis 0 0 0  XYZ
  end
  begin
     id 2 
     name lfemur
     direction 0.34202 -0.939693 0  
     length 7.16147  
     axis 0 0 20  XYZ
    dof rx ry rz
    limits (-160.0 20.0)
           (-70.0 70.0)
           (-60.0 70.0)
  end
  begin
     id 3 
     name ltibia
     direction 0.34202 -0.939693 0   
     length 7.63967   
     axis 0 0 20   XYZ
    dof rx
    limits (-10.0 170.0)
  end
  begin
     id 4 
     name lfoot
     direction 0.0938457 -0.257721 0.961651   
     length 1.89793   
     axis -90 7.62852e-016 20   XYZ
    dof rx rz
    limits (-45.0 90.0)
           (-70.0 20.0)
  end
  begin
     id 5 
     name ltoes
     direction -0.00116841 -0.0030592 0.999995   
     length 0.955649   
     axis -90 7.62852e-016 20   XYZ
    dof rx
    limits (-90.0 20.0)
  end
  begin
     id 6 
     name rhipjoint
     direction -0.649445 -0.705948 0.282592   
     length 2.49238  
     axis 0 0 0  XYZ 
  end
  begin
     id 7 
     name rfemur
     direction -0.34202 -0.939693 0   
     length 6.90728   
     axis 0 0 -20   XYZ
    dof rx ry rz
    limits (-160.0 20.0)
           (-70.0 70.0)
           (-70.0 60.0)
  end
  begin
     id 8 
     name rtibia
     direction -0.34202 -0.939693 0   
     length 7.72868   
     axis 0 0 -20   XYZ
    dof rx
    limits (-10.0 170.0)
 end
 begin
     id 9 
     name rfoot
     direction -0.0920068 -0.252865 0.963117   
     length 1.97476  
     axis -90 -7.62852e-016 -20   XYZ
    dof rx rz
    limits (-45.0 90.0)
           (-20.0 70.0)
  end
  begin
     id 10 
     name rtoes
     direction 0.000391322 0.00230649 0.999997   
     length 0.992641   
     axis -90 -7.62852e-016 -20   XYZ
    dof rx
    limits (-90.0 20.0)
  end
  begin
     id 11 
     name lowerback
     direction -0.00875327 0.998321 -0.0572635   
     length 2.20024   
     axis 0 0 0   XYZ
    dof rx ry rz
    limits (-20.0 45.0)
           (-30.0 30.0)
           (-30.0 30.0)
  end
  begin
     id 12 
     name upperback
     direction 0.00753931 0.999972 -0.000360425   
     length 2.20538   
     axis 0 0 0   XYZ
    dof rx ry rz
    limits (-20.0 45.0)
           (-30.0 30.0)
           (-30.0 30.0)
  end
  begin
     id 13 
     name thorax
     direction 0.0117767 0.999601 0.0256663   
     length 2.21508   
     axis 0 0 0   XYZ
    dof rx ry rz
    limits (-20.0 45.0)
           (-30.0 30.0)
           (-30.0 30.0)
  end
  begin
     id 14 
     name lowerneck
     direction 0.060228 0.994909 0.0807986   
     length 1.7607   
     axis 0 0 0   XYZ
    dof rx ry rz
    limits (-20.0 45.0)
           (-30.0 30.0)
           (-30.0 30.0)
  end
  begin
     id 15 
     name upperneck
     direction -0.0563647 0.959594 -0.275685   
     length 1.75612   
     axis 0 0 0   XYZ
    dof rx ry rz
    limits (-20.0 45.0)
           (-30.0 30.0)
           (-30.0 30.0)
  end
  begin
     id 16
     name head
     direction -0.0161544 0.99458 -0.102714  
     length 1.79288  
     axis 0 0 0   XYZ
    dof rx ry rz
    limits (-20.0 45.0)
           (-30.0 30.0)
           (-30.0 30.0)
  end
  begin
     id 17 
     name lclavicle
     direction 0.93913 0.332189 -0.087669  
     length 3.52087  
     axis 0 0 0   XYZ
    dof ry rz
    limits (-20.0 10.0)
           (0.0 20.0)
  end
  begin
     id 18 
     name lhumerus
     direction 1 -4.48974e-011 -2.70836e-027   
     length 5.35289   
     axis -180 -30 -90   XYZ
    dof rx ry rz
    limits (-60.0 90.0)
           (-90.0 90.0)
           (-90.0 90.0)
  end
  begin
     id 19
     name lradius
     direction 1 -4.48961e-011 -9.76021e-027   
     length 3.27727   
     axis -180 -30 -90   XYZ
    dof rx
    limits (-10.0 170.0)
  end
  begin
     id 20
     name lwrist
     direction 1 -4.49103e-011 -2.23668e-026   
     length 1.63864   
     axis 1.44924e-014 90 90   XYZ
    dof ry
    limits (-180.0 0.0)
 end
  begin
     id 21 
     name lhand
     direction 1 3.0697e-005 0.000161777   
     length 0.54443   
     axis 2.85318e-014 90 90   XYZ
    dof rx rz
    limits (-90.0 90.0)
           (-45.0 45.0)
  end
  begin
     id 22 
     name lfingers
     direction 1 -4.49027e-011 -8.9447e-026   
     length 0.438912   
     axis 5.70628e-014 90 90   XYZ
    dof rx
    limits (0.0 90.0)
  end
  begin
     id 23
     name lthumb
     direction 0.707058 2.6516e-005 0.707156   
     length 0.630274   
     axis -90 45 -3.53137e-014   XYZ
    dof rx rz
    limits (-45.0 45.0)
           (-45.0 45.0)
  end
  begin
     id 24 
     name rclavicle
     direction -0.95274 0.284984 -0.105215   
     length 3.43401  
     axis 0 0 0   XYZ 
    dof ry rz
    limits (-10.0 20.0)
           (-20.0 0.0)
  end
  begin
     id 25 
     name rhumerus
     direction -0.999999 -0.000575019 -0.00106829  
     length 5.52077   
     axis -180 30 90   XYZ
    dof rx ry rz
    limits (-90.0 60.0)
           (-90.0 90.0)
           (-90.0 90.0)
  end
  begin
     id 26 
     name rradius
     direction -1 -4.4879e-011 -6.35415e-027   
     length 3.32364   
     axis -180 30 90   XYZ
    dof rx
    limits (-10.0 170.0)
  end
  begin
     id 27 
     name rwrist
     direction -1 -4.49048e-011 -9.98542e-027   
     length 1.66182   
     axis 6.32482e-015 -90 -90   XYZ
    dof ry
    limits (-180.0 0.0)
  end
  begin
     id 28
     name rhand
     direction -1 -4.48978e-011 -1.99771e-026   
     length 0.732235   
     axis 1.27479e-014 -90 -90   XYZ
    dof rx rz
    limits (-90.0 90.0)
           (-45.0 45.0)
  end
  begin
     id 29
     name rfingers
     direction -1 -4.49144e-011 -3.99245e-026   
     length 0.590347   
     axis 2.5496e-014 -90 -90   XYZ
    dof rx
    limits (0.0 90.0)
  end
  begin
     id 30
     name rthumb
     direction -0.707107 -6.35121e-011 0.707107   
     length 0.847624   
     axis -90 -45 -2.82974e-014   XYZ
    dof rx rz
    limits (-45.0 45.0)
           (-45.0 45.0)
  end
:hierarchy
  begin
    root lhipjoint rhipjoint lowerback
    lhipjoint lfemur
    lfemur ltibia
    ltibia lfoot
    lfoot ltoes
    rhipjoint rfemur
    rfemur rtibia
    rtibia rfoot
    rfoot rtoes
    lowerback upperback
    upperback thorax
    thorax lowerneck lclavicle rclavicle
    lowerneck upperneck
    upperneck head
    lclavicle lhumerus
    lhumerus lradius
    lradius lwrist
    lwrist lhand lthumb
    lhand lfingers
    rclavicle rhumerus
    rhumerus rradius
    rradius rwrist
    rwrist rhand rthumb
    rhand rfingers
  end

#!OML:ASF G:\Work\Work\Patient Classification 1\Elijah\terrain1\Elijah.ASF
:FULLY-SPECIFIED
:DEGREES
148
root -7.15842 19.1355 -6.7417 4.34121 3.29563 5.58081
lowerback 6.61592 1.65543 3.1144
upperback 2.6299 2.32375 -6.51466
thorax -0.574812 1.23712 -8.77712
lowerneck -10.5116 10.7095 17.4402
upperneck 29.6421 14.6213 -9.51258
head 13.9104 7.32257 -4.3036
rclavicle -3.37934e-014 7.95139e-015
rhumerus -42.7198 -5.08198 -92.1389
rradius 26.4985
rwrist 4.55572
rhand -10.4645 15.5166
rfingers 7.12502
rthumb 15.5363 -13.8793
lclavicle -3.37934e-014 7.95139e-015
lhumerus -43.6852 -12.4075 76.5392
lradius 57.0851
lwrist 10.4889
lhand -14.4735 28.6007
lfingers 7.12502
lthumb 11.6725 58.2555
rfemur -36.5153 -0.330464 15.4258
rtibia 35.457
rfoot 9.38414 -6.43171
rtoes -35.9746
lfemur -21.2456 3.55846 -29.3069
ltibia 70.4169
lfoot -16.0048 -19.8331
ltoes 6.76675
149
root -7.1685 19.0623 -6.57774 4.18255 3.36461 5.44047
lowerback 6.1658 1.72997 3.28466
upperback 2.64663 2.43632 -6.40617
thorax -0.284535 1.30474 -8.74384
lowerneck -10.2246 10.6537 17.4894
upperneck 29.5762 14.6006 -9.58704
head 13.828 7.32336 -4.35836
rclavicle -2.92213e-014 2.8625e-014
rhumerus -43.0633 -4.85744 -92.2023
rradius 26.6228
rwrist 4.4885
rhand -14.2833 23.8031
rfingers 7.12502
rthumb 11.8559 -5.84122
lclavicle -2.92213e-014 2.8625e-014
lhumerus -44.2084 -11.9976 76.7376
lradius 56.91
lwrist 10.6139
lhand -14.8515 28.6065
lfingers 7.12502
lthumb 11.308 58.2816
rfemur -35.3682 0.0854676 15.4776
rtibia 34.3273
rfoot 8.61509 -8.40923
rtoes -33.2136
lfemur -21.0311 4.04015 -28.8384
ltibia 71.483
lfoot -15.2285 -20.42
ltoes 7.61794
150
root -7.17341 18.9817 -6.41226 4.1242 3.4704 5.43114
lowerback 5.89109 1.77664 3.41331
upperback 2.5474 2.50294 -6.35588
thorax -0.219626 1.33851 -8.75763
lowerneck -10.5318 10.6981 17.3285
upperneck 29.9364 14.6471 -9.43683
head 14.0293 7.33585 -4.25449
rclavicle 1.76918e-014 -3.18055e-014
rhumerus -43.4229 -4.73071 -92.2662
rradius 26.8261
rwrist 4.31476
rhand -11.6716 18.1959
rfingers 7.12502
rthumb 14.3735 -11.2865
lclavicle 1.76918e-014 -3.18055e-014
lhumerus -44.7838 -11.6404 76.9016
lradius 56.7685
lwrist 10.8226
lhand -15.1217 29.127
lfingers 7.12502
lthumb 11.0474 58.8162
rfemur -34.4281 0.259663 15.4783
rtibia 33.3843
rfoot 10.2282 -8.05655
rtoes -33.1598
lfemur -20.7557 4.46521 -28.5264
ltibia 72.5058
lfoot -14.7128 -20.8505
ltoes 7.83241
151
root -7.17357 18.9064 -6.23727 3.80576 3.6887 5.31073
lowerback 5.90249 1.77758 3.7909
upperback 2.37283 2.52014 -6.29985
thorax -0.389628 1.33894 -8.92446
lowerneck -10.4932 10.7094 17.1472
upperneck 30.2891 14.6706 -9.16095
head 14.1355 7.36443 -4.11635
rclavicle 2.22639e-014 -6.2816e-014
rhumerus -44.0797 -4.76306 -92.2593
rradius 26.9182
rwrist 3.88222
rhand -12.1917 21.0198
rfingers 7.12502
rthumb 13.8723 -8.49756
lclavicle 2.22639e-014 -6.2816e-014
lhumerus -45.5407 -11.2627 77.0437
lradius 56.5289
lwrist 11.0532
lhand -15.1628 29.7994
lfingers 7.12502
lthumb 11.0077 59.4907
rfemur -33.195 0.319701 15.6266
rtibia 32.6266
rfoot 11.751 -7.15387
rtoes -30.0008
lfemur -20.3167 4.86559 -28.0859
ltibia 73.4234
lfoot -13.6084 -21.3763
ltoes 9.74107
152
root -7.17186 18.8231 -6.05783 3.56314 3.93093 5.22002
lowerback 5.78016 1.80115 4.13453
upperback 2.03438 2.56008 -6.28165
thorax -0.651397 1.34116 -9.11238
lowerneck -9.76834 10.5888 17.275
upperneck 30.4558 14.5731 -9.01982
head 14.0352 7.38612 -4.13622
rclavicle -9.93923e-017 -5.96354e-014
rhumerus -44.971 -5.01067 -92.1609
rradius 26.793
rwrist 3.78011
rhand -12.8095 23.2576
rfingers 7.12502
rthumb 13.2768 -6.29951
lclavicle -9.93923e-017 -5.96354e-014
lhumerus -46.3888 -10.7764 77.0822
lradius 55.7496
lwrist 10.9796
lhand -15.1105 29.4086
lfingers 7.12502
lthumb 11.0582 59.0973
rfemur -31.9655 0.169177 15.7676
rtibia 31.889
rfoot 11.594 -6.97744
rtoes -31.7818
lfemur -19.8796 5.19041 -27.7199
ltibia 74.2242
lfoot -12.3201 -21.8129
ltoes 11.0735
153
root -7.17798 18.7224 -5.9074 3.96921 3.93611 5.1476
lowerback 5.30908 1.88991 4.23632
upperback 1.62364 2.66771 -6.19771
thorax -0.795793 1.37664 -9.07382
lowerneck -9.81451 10.565 17.2257
upperneck 30.8606 14.5475 -8.88033
head 14.2028 7.39075 -4.08092
rclavicle 1.69961e-014 -3.97569e-014
rhumerus -45.4031 -5.20395 -91.9492
rradius 26.6914
rwrist 4.10107
rhand -11.6108 21.8927
rfingers 7.12502
rthumb 14.432 -7.58546
lclavicle 1.69961e-014 -3.97569e-014
lhumerus -46.7915 -10.0074 77.15
lradius 54.7229
lwrist 10.6422
lhand -15.3082 28.2879
lfingers 7.12502
lthumb 10.8675 57.9867
rfemur -31.7211 0.0104866 15.9549
rtibia 31.3823
rfoot 12.4827 -6.09628
rtoes -30.2365
lfemur -20.4261 5.64737 -27.4641
ltibia 75.326
lfoot -11.3434 -22.0053
ltoes 10.8966
154
root -7.18991 18.6565 -5.72284 3.69086 3.9937 5.06115
lowerback 5.32452 1.93232 4.27869
upperback 1.44995 2.72386 -6.03742
thorax -0.981358 1.39134 -8.93169
lowerneck -10.0706 10.5393 17.0341
upperneck 31.4196 14.4833 -8.60354
head 14.4533 7.37207 -3.94627
rclavicle 1.76918e-014 -8.74653e-015
rhumerus -45.7785 -5.3838 -91.6442
rradius 26.6079
rwrist 4.3359
rhand -11.0106 21.2781
rfingers 7.12502
rthumb 15.0103 -8.15787
lclavicle 1.76918e-014 -8.74653e-015
lhumerus -47.4828 -9.30443 77.3433
lradius 54.0486
lwrist 10.3888
lhand -15.9523 26.8385
lfingers 7.12502
lthumb 10.2461 56.569
rfemur -30.51 0.282907 16.1447
rtibia 30.9479
rfoot 13.529 -5.66764
rtoes -26.1938
lfemur -20.6548 6.46299 -27.0624
ltibia 76.2005
lfoot -10.3025 -22.027
ltoes 9.63484
155
root -7.19513 18.5337 -5.55574 3.68674 4.04477 5.01927
lowerback 5.25453 1.99702 4.39229
upperback 1.03361 2.80594 -5.96917
thorax -1.35887 1.40462 -8.93729
lowerneck -8.23901 10.3218 18.3506
upperneck 30.3801 14.5375 -9.89746
head 13.8598 7.46484 -4.7448
rclavicle -6.4605e-015 5.24792e-014
rhumerus -46.4777 -5.99444 -91.1713
rradius 26.5487
rwrist 4.80775
rhand -10.7127 21.5139
rfingers 7.12502
rthumb 15.2973 -7.90037
lclavicle -6.4605e-015 5.24792e-014
lhumerus -48.5189 -8.85371 77.4933
lradius 53.4122
lwrist 10.3736
lhand -16.307 26.019
lfingers 7.12502
lthumb 9.90393 55.766
rfemur -29.8681 0.429331 16.3092
rtibia 30.793
rfoot 14.0088 -4.64258
rtoes -22.1483
lfemur -19.5371 6.43348 -26.4376
ltibia 77.5079
lfoot -9.81218 -23.1332
ltoes 15.081
156
root -7.19923 18.4274 -5.3759 3.64301 4.0895 4.94506
lowerback 4.85126 2.05514 4.41269
upperback 0.863715 2.87635 -5.7998
thorax -1.30507 1.4362 -8.75168
lowerneck -6.97033 10.1679 19.2651
upperneck 29.4434 14.6314 -10.992
head 13.3943 7.53402 -5.35798
rclavicle 1.0138e-014 -8.74653e-015
rhumerus -47.1207 -6.74525 -90.5244
rradius 26.7381
rwrist 5.30457
rhand -9.9938 21.1181
rfingers 7.12502
rthumb 15.9896 -8.24196
lclavicle 1.0138e-014 -8.74653e-015
lhumerus -49.0912 -8.23264 77.6784
lradius 52.5906
lwrist 10.5457
lhand -16.3004 26.2137
lfingers 7.12502
lthumb 9.91032 55.9604
rfemur -29.0944 0.324409 16.6569
rtibia 30.8106
rfoot 12.2373 -2.11366
rtoes -24.4563
lfemur -19.3945 6.79809 -26.0278
ltibia 78.6085
lfoot -8.49906 -23.2922
ltoes 16.6343
157
root -7.22002 18.3101 -5.21832 3.59856 3.92526 4.91557
lowerback 4.61842 2.1626 4.13341
upperback 0.73947 3.00187 -5.57189
thorax -1.30852 1.49536 -8.33725
lowerneck -6.30625 10.1138 19.6969
upperneck 28.9452 14.7333 -11.5637
head 13.1581 7.59123 -5.65856
rclavicle -7.35503e-015 3.49861e-014
rhumerus -46.8779 -6.69287 -90.2181
rradius 26.517
rwrist 5.13086
rhand -9.1396 19.9959
rfingers 7.12502
rthumb 16.8121 -9.29627
lclavicle -7.35503e-015 3.49861e-014
lhumerus -49.2357 -7.44257 77.854
lradius 51.4176
lwrist 10.72
lhand -16.4707 26.5652
lfingers 7.12502
lthumb 9.74605 56.3197
rfemur -28.5441 0.0792838 17.1571
rtibia 31.2319
rfoot 10.8492 0.922738
rtoes -34.3931
lfemur -19.5493 7.27289 -25.5689
ltibia 79.988
lfoot -8.67818 -23.9574
ltoes 15.2838
158
root -7.22139 18.1986 -5.0048 2.6743 4.2496 4.90155
lowerback 4.47733 2.11356 4.19051
upperback 1.0481 2.94592 -5.39614
thorax -0.925147 1.48942 -8.16062
lowerneck -5.77369 10.0385 20.0093
upperneck 28.5567 14.7471 -11.9256
head 12.9498 7.61439 -5.86674
rclavicle -1.83876e-015 -1.03368e-014
rhumerus -46.9459 -6.93336 -89.8587
rradius 26.6559
rwrist 5.17942
rhand -8.55183 19.8323
rfingers 7.12502
rthumb 17.3778 -9.41089
lclavicle -1.83876e-015 -1.03368e-014
lhumerus -49.4423 -6.70476 77.9689
lradius 50.1837
lwrist 10.7904
lhand -16.7969 26.7508
lfingers 7.12502
lthumb 9.43132 56.5197
rfemur -26.6256 0.029907 17.5448
rtibia 31.9748
rfoot 7.68699 4.64683
rtoes -47.8119
lfemur -17.9256 7.35048 -24.9544
ltibia 81.1905
lfoot -8.74093 -24.3345
ltoes 13.2309
159
root -7.23998 18.0873 -4.89379 3.43143 3.99732 4.86799
lowerback 4.37542 2.24271 4.02096
upperback 0.386418 3.09589 -5.26742
thorax -1.54638 1.52356 -7.94535
lowerneck -5.21882 9.92501 20.2964
upperneck 28.2511 14.7429 -12.334
head 12.7708 7.62674 -6.09685
rclavicle 1.04362e-015 3.77691e-014
rhumerus -47.3297 -7.26849 -89.4437
rradius 26.7624
rwrist 5.00873
rhand -8.42817 20.7304
rfingers 7.12502
rthumb 17.4968 -8.5022
lclavicle 1.04362e-015 3.77691e-014
lhumerus -50.0965 -6.00508 78.13
lradius 49.222
lwrist 10.9133
lhand -17.3508 26.7081
lfingers 7.12502
lthumb 8.8968 56.5005
rfemur -27.2888 0.410462 17.9138
rtibia 32.9899
rfoot 2.94329 7.41478
rtoes -53.1309
lfemur -20.6228 7.95327 -24.9542
ltibia 82.9259
lfoot -5.79611 -23.7137
ltoes 9.88642
160
root -7.24889 17.9362 -4.74238 3.13869 4.0292 4.68734
lowerback 4.74808 2.23884 4.06165
upperback 0.146008 3.09839 -5.01038
thorax -2.01713 1.50065 -7.722
lowerneck -4.8489 9.82835 20.4244
upperneck 28.1397 14.7541 -12.6702
head 12.6921 7.63248 -6.26733
rclavicle 1.54058e-015 -1.98785e-015
rhumerus -47.6377 -7.42073 -89.0473
rradius 26.6982
rwrist 5.02292
rhand -8.95677 21.5103
rfingers 7.12502
rthumb 16.9881 -7.7668
lclavicle 1.54058e-015 -1.98785e-015
lhumerus -50.6114 -5.17778 78.3421
lradius 47.9885
lwrist 10.9244
lhand -18.0422 26.8614
lfingers 7.12502
lthumb 8.22961 56.6811
rfemur -27.0009 0.806116 18.4636
rtibia 34.4061
rfoot 0.343327 6.75982
rtoes -52.2233
lfemur -19.4112 7.41353 -24.0901
ltibia 84.4476
lfoot -2.22041 -24.5898
ltoes 20.4285
